# xmcd
#
# Track frame offsets:
#	150
#	10988
#	23003
#	33961
#	46224
#	58007
#	66820
#	76615
#	88968
#	98156
#
# Disc length: 1472 seconds
#
# Revision: 1
# Processed by: cddbd v1.5.2PL0 Copyright (c) Steve Scherf et al.
# Submitted via: audiograbber 1.83.01
#
DISCID=7005be0a
DTITLE=Jim Reeves - There's Always Me
DYEAR=1980
DGENRE=Country
TTITLE0=There's Always Me
TTITLE1=Room Full Of Roses
TTITLE2=Moon River
TTITLE3=All Dressed Up And Lonely
TTITLE4=Blue Skies
TTITLE5=After Loving You
TTITLE6=Somewhere Along The Line
TTITLE7=Blue Side Of Lonesome
TTITLE8=What Would You Do
TTITLE9=I Can't Stop Loving You
EXTD=
EXTT0=
EXTT1=
EXTT2=
EXTT3=
EXTT4=
EXTT5=
EXTT6=
EXTT7=
EXTT8=
EXTT9=
PLAYORDER=
